<svg id="visual" viewBox="0 0 900 600" width="900" height="600" xmlns="http://www.w3.org/2000/svg" xmlns:xlink="http://www.w3.org/1999/xlink" version="1.1"><rect x="0" y="0" width="900" height="600" fill="#fff"></rect><g transform="translate(438.68803679961235 336.56896809233314)"><path d="M105.7 -189.9C143.1 -161.5 183.7 -145.5 215.1 -115.9C246.5 -86.3 268.8 -43.2 258.8 -5.8C248.8 31.7 206.7 63.3 171.4 86.1C136 108.9 107.5 122.9 80.1 133.1C52.7 143.2 26.3 149.6 -8.9 165.1C-44.2 180.5 -88.3 205 -126.3 200.9C-164.3 196.8 -196 164.2 -216.6 125.9C-237.2 87.7 -246.6 43.8 -230.3 9.4C-214 -25 -171.9 -50 -153.1 -91.3C-134.3 -132.6 -138.6 -190.1 -117 -227.6C-95.3 -265.1 -47.7 -282.6 -6.8 -270.9C34.2 -259.2 68.3 -218.4 105.7 -189.9" fill="#c8a89c"></path></g></svg>